<svg id="Layer_1" data-name="Layer 1" xmlns="http://www.w3.org/2000/svg" xmlns:xlink="http://www.w3.org/1999/xlink" viewBox="0 0 600 396.7"><defs><style>.cls-1{fill:url(#Web_Shield_blend);}.cls-2{fill:#282728;}.cls-3{fill:#c5050c;}.cls-4{fill:#fff;}</style><radialGradient id="Web_Shield_blend" cx="292.67" cy="127.94" r="100.31" gradientTransform="translate(-7.81 -7.33) scale(1.09 1.09)" gradientUnits="userSpaceOnUse"><stop offset="0.17" stop-color="#fff"/><stop offset="0.3" stop-color="#f6ede4"/><stop offset="0.69" stop-color="#debe9b"/><stop offset="0.87" stop-color="#d4ac7f"/></radialGradient></defs><title>uw-web-logo-centered</title><path class="cls-1" d="M309.94,261.66c-0.49-.13-1.92-1.62-3.16-3.48l-0.19-.28-0.33-.08c-54.37-12.68-84.66-96.15-77.84-163.13a143.13,143.13,0,0,1,3.86-21.76,106.16,106.16,0,0,1,7-19.17,70.65,70.65,0,0,1,11.26-16.95c9-9.9,20.2-15.22,32.29-15.39a1,1,0,0,0,1.13-.76c2.12-4.31,7.56-7.32,11.63-7.89l0.57-.08,0.14-.56C296.39,11.69,299,1.49,310,1.49S323.61,12,323.63,12.1l0.14,0.56,0.57,0.08c4.07,0.57,9.49,3.62,11.61,7.92a1,1,0,0,0,1.11.77c12.1,0.17,23.27,5.49,32.3,15.39A72,72,0,0,1,382.1,56.95l0.7,1.66a127.67,127.67,0,0,1,8.66,36.09c6.82,67-23.47,150.45-77.84,163.13l-0.33.08-0.19.28C311.87,260,310.43,261.53,309.94,261.66Z" transform="translate(-1 -0.65)"/><path class="cls-2" d="M392.23,94.62a148.48,148.48,0,0,0-2.59-16.49,119.43,119.43,0,0,0-4.18-14.78,93.86,93.86,0,0,0-6.68-14.78,67.9,67.9,0,0,0-8.87-12.31c-9.12-10-20.39-15.51-32.89-15.68h-0.27c-2-4.44-7.62-8.06-12.48-8.73,0,0-2.61-11.14-14.34-11.19s-14.34,11.19-14.34,11.19c-4.86.68-10.45,4.29-12.48,8.73h-0.27c-12.5.18-23.76,5.69-32.89,15.68a67.9,67.9,0,0,0-8.87,12.31,93.86,93.86,0,0,0-6.68,14.78,119.43,119.43,0,0,0-4.18,14.78,148.48,148.48,0,0,0-2.59,16.49c-6.91,67.85,23.61,151.25,78.49,164,0.84,1.25,2.75,3.84,3.8,3.84s3-2.59,3.8-3.84C368.63,245.86,399.15,162.47,392.23,94.62ZM309.94,3.27c9.64,0,11.76,8.19,11.78,8.28A14.58,14.58,0,0,0,310.15,19a0.52,0.52,0,0,1-.21.28,0.46,0.46,0,0,1-.21-0.28,14.58,14.58,0,0,0-11.57-7.41C298.18,11.46,300.3,3.27,309.94,3.27Zm-5.58,12.86a10.54,10.54,0,0,1,4.78,6.32c0.19,0.78.49,1.25,0.8,1.25s0.61-.47.8-1.25a10.54,10.54,0,0,1,4.78-6.32,12.56,12.56,0,0,1,18.12,4.75,40.13,40.13,0,0,0-5,1.26,19.81,19.81,0,0,0-7.13,4,28.21,28.21,0,0,0-9.12,18.29c-2,21.94,23.16,18.49,24.43,18.39,3.25,0,5.71-5.12,5.71-11.91S340,39,336.81,39c-1.95,0-5.32,1.56-5.64,7.64-0.22,4.27,1.87,10,4.57,10.31,1.4,0.18,2.68-2.29,3.08-4.8,0.35-2.18.17-5.61-1.78-6.1a1.15,1.15,0,0,0-1.39.84c-0.14.56,1.21,1.51,1.16,4-0.08,3.75-3.85,1.88-3.35-4.08,0.46-5.29,3.16-5,3.27-5,1.51,0,3.79,3.15,3.79,9,0,5.24-2.53,10.89-7.37,7.94-4.07-3-5.68-9.83-4.55-15.14,0.51-2.44,2.61-9.06,9.39-9.06,9.78,0,18.89,5.14,26.16,14.69-0.8,2.56-5.84,12.31-21.85,21.63-0.34.17-.85,0.47-0.88,0.45-4.89-2-9.47-3.23-14.8-2.93a81.22,81.22,0,0,0-13.91,2.21,12.27,12.27,0,0,1-2.76.45h0a12.27,12.27,0,0,1-2.76-.45,81.22,81.22,0,0,0-13.91-2.21c-5.33-.3-9.92.94-14.8,2.93,0,0-.53-0.28-0.88-0.45-16-9.33-21.06-19.07-21.85-21.63,7.27-9.56,16.38-14.69,26.16-14.69,6.78,0,8.88,6.63,9.39,9.06,1.13,5.3-.48,12.16-4.55,15.14-4.83,2.95-7.37-2.7-7.37-7.94,0-5.89,2.27-9,3.79-9,0.11,0,2.81-.33,3.27,5,0.51,6-3.27,7.84-3.35,4.08,0-2.51,1.3-3.47,1.16-4a1.15,1.15,0,0,0-1.39-.84c-1.95.49-2.13,3.91-1.78,6.1,0.4,2.51,1.68,5,3.08,4.8,2.7-.36,4.79-6,4.57-10.31C288.4,40.52,285,39,283.08,39c-3.19,0-5.71,5.12-5.71,11.91s2.45,11.91,5.71,11.91c1.27,0.11,26.43,3.55,24.43-18.39a28.21,28.21,0,0,0-9.12-18.29,19.81,19.81,0,0,0-7.13-4,40.13,40.13,0,0,0-5-1.26A12.56,12.56,0,0,1,304.36,16.13Zm-47.59,92a97.47,97.47,0,0,0-1,9.92A133.25,133.25,0,0,0,262,163.77a148.45,148.45,0,0,0,12.4,28c-5.14,4.67-12.84,6.51-15.43,7-13.9-27.64-21-63.31-19.41-95.47A48.4,48.4,0,0,0,256.77,108.11Zm-17.15-6.59c1.31-21.94,6.88-39.15,15-50.62,1.43,3.73,7.71,13,22.18,21.54-12.3,7.4-17.86,22.69-19.73,34.09A47.42,47.42,0,0,1,239.62,101.52Zm35.56,91.64c9.23,15.91,18.37,25.39,25.35,30.4C298,230,292,235,289.92,236.63c-12-8.09-22.21-20.91-30.22-36.39C262.78,199.61,270,197.72,275.18,193.16Zm26.74,31.38a36.59,36.59,0,0,0,8,4.41,36.59,36.59,0,0,0,8-4.41c2.63,6.24,8.11,11.06,10.6,13a56.07,56.07,0,0,1-10.74,5.35c0-.13,0-0.26-0.06-0.4-0.77-4-5.94-4.77-7.83-4.77s-7.06.82-7.83,4.77c0,0.13,0,.26-0.06.4a56.07,56.07,0,0,1-10.74-5.35C293.82,235.6,299.3,230.77,301.92,224.54Zm17.43-1c7-5,16.12-14.5,25.35-30.4,5.18,4.56,12.41,6.45,15.49,7.08-8,15.48-18.19,28.3-30.22,36.39C327.87,235,321.89,230,319.36,223.56Zm26.17-31.83a148.45,148.45,0,0,0,12.4-28A133.25,133.25,0,0,0,364.07,118a97.47,97.47,0,0,0-1-9.92,48.4,48.4,0,0,0,17.25-4.83c1.57,32.16-5.51,67.83-19.41,95.47C358.36,198.25,350.66,196.41,345.53,191.73Zm17.34-85.21c-1.87-11.39-7.51-26.39-19.73-34.09,14.47-8.49,20.75-17.81,22.18-21.54,8.07,11.47,13.65,28.68,15,50.62A47.42,47.42,0,0,1,362.86,106.52ZM301,253.84a69.87,69.87,0,0,1-17.61-8.79,82.49,82.49,0,0,1-9.74-7.86,93.31,93.31,0,0,1-7.06-7.41q-2.27-2.65-4.37-5.44A142.47,142.47,0,0,1,245.5,195.3a191.71,191.71,0,0,1-10.27-30.59,211.37,211.37,0,0,1-5.37-32.54,193.72,193.72,0,0,1-.2-32.51c0.48-5.8,1.18-11.58,2.22-17.3a118,118,0,0,1,4.28-16.82,93.11,93.11,0,0,1,6.31-14.59,62.8,62.8,0,0,1,9.44-13.31,48.58,48.58,0,0,1,11.89-9.31,41.78,41.78,0,0,1,5.79-2.61q1.52-.55,3.08-1a26.46,26.46,0,0,1,3.1-.77,42.06,42.06,0,0,1,7.68-.63,22.75,22.75,0,0,1,11.65,3.14c4.93,3.5,9.24,9.31,10,18.14,1.18,13.55-12.62,15.69-15.33,15.66-0.41,0-.63-0.4.71-1.78,3.17-4.07,4.21-10.31,3.15-15.31-1.31-6.22-5.7-11.08-12.06-11.07-9.52,0-18,4.79-24.35,11.68-6.16,6.71-10.39,15.07-13.4,23.6a128.06,128.06,0,0,0-6.6,34.13,187.3,187.3,0,0,0,.69,31.93,206.13,206.13,0,0,0,5.85,31.78,182.46,182.46,0,0,0,10.58,29.56,130.07,130.07,0,0,0,16.44,27.07c6.67,8.28,14.9,15.74,24.4,20.62a54.44,54.44,0,0,0,6.62,2.87,20.14,20.14,0,0,0,2,9.31A19.88,19.88,0,0,1,301,253.84Zm9.88,4.64a1,1,0,0,1-1.87,0c-2.35-3-5.85-8.68-4.53-15.51,0.37-1.92,3.61-2.79,5.47-2.81S315,241,315.42,243C316.74,249.81,313.23,255.53,310.88,258.48ZM390,132.16a211.37,211.37,0,0,1-5.37,32.54,191.71,191.71,0,0,1-10.27,30.59,142.47,142.47,0,0,1-16.73,29.06q-2.1,2.78-4.37,5.44a93.31,93.31,0,0,1-7.06,7.41,82.49,82.49,0,0,1-9.74,7.86,69.87,69.87,0,0,1-17.61,8.79,19.88,19.88,0,0,1-2.8.83,20.14,20.14,0,0,0,2-9.31,54.44,54.44,0,0,0,6.62-2.87c9.5-4.88,17.74-12.34,24.4-20.62a130.07,130.07,0,0,0,16.44-27.07,182.46,182.46,0,0,0,10.58-29.56A206.13,206.13,0,0,0,382,133.46a187.3,187.3,0,0,0,.69-31.93,128.06,128.06,0,0,0-6.6-34.13c-3-8.53-7.25-16.89-13.4-23.6-6.33-6.9-14.83-11.67-24.35-11.68-6.36,0-10.75,4.85-12.06,11.07-1.06,5,0,11.24,3.15,15.31,1.34,1.39,1.13,1.78.71,1.78-2.71,0-16.52-2.12-15.33-15.66,0.77-8.83,5.08-14.64,10-18.14a22.75,22.75,0,0,1,11.65-3.14,42.06,42.06,0,0,1,7.68.63,26.31,26.31,0,0,1,3.1.77q1.56,0.42,3.08,1a41.78,41.78,0,0,1,5.79,2.61A48.58,48.58,0,0,1,368,37.63a62.8,62.8,0,0,1,9.44,13.31,93.11,93.11,0,0,1,6.31,14.59A118,118,0,0,1,388,82.35c1,5.72,1.74,11.51,2.22,17.3A193.72,193.72,0,0,1,390,132.16Z" transform="translate(-1 -0.65)"/><path class="cls-3" d="M361.08,118.47c-0.34-8.06-2.7-32.69-19.45-43.37-3.62-2.3-8.38-3.32-13.16-3.63-8.23-.54-14.32,2.61-18.43,2.72h-0.2c-4.11-.12-10.25-3.26-18.48-2.72-4.77.31-9.49,1.33-13.11,3.63-16.75,10.68-19.11,35.31-19.45,43.37a130.57,130.57,0,0,0,10.62,57C281,201,295,219,308.84,225.13l1.1,0.49,1.11-.49c13.82-6.14,27.82-24.18,39.41-49.71A130.58,130.58,0,0,0,361.08,118.47Z" transform="translate(-1 -0.65)"/><path class="cls-4" d="M334.84,99.1v5.57l1.13-.17a4,4,0,0,1,.53,0,3.52,3.52,0,0,1,2.46.83,3.8,3.8,0,0,1,.64,3.33c0,0.06-11.21,48.57-13.34,57.82-2.45-11.69-15.78-75.53-15.78-75.53l-0.06-.27h-2.64l0,0.29s-9.65,62.14-11.58,74.58L282.88,108.7a8.09,8.09,0,0,1,0-.84,3.81,3.81,0,0,1,.92-2.85,2.93,2.93,0,0,1,2.16-.66l1.11,0.15V99.1H268.32v5.27l0.83,0.13c0.41,0.08,2.5.59,2.84,2.49,0,0,21.91,94,22.84,98l0.06,0.26h3.29l0-.29c0.1-.65,9-59,10.68-69.91C311,146,322.38,204.36,322.5,205l0.06,0.27h2.94l21.74-98.33a2.93,2.93,0,0,1,3-2.26h0.22l1.07,0.09V99.1H334.84Z" transform="translate(-1 -0.65)"/><path class="cls-3" d="M92.94,279.71c9.09,3.26,5.24,13.05,3.15,19.94L82.92,343.88l-16.2-52.33c-1.63-5.31-2.44-9.18-1.75-12.2H48.54v0.36C55,283.1,52.63,291,50.41,298.33L36.77,344.25,19.41,288.06c-0.7-2.3-1.86-6-1.4-8.7H1v0.36c5.83,4.11,7.58,12,9.68,18.61l13.75,44.59c3.84,12.45,4.89,11.61,15.49,19.58l18.19-61L70.91,343c3.86,12.45,4.67,11.84,15.39,19.46l24.58-83.14H92.94v0.36Z" transform="translate(-1 -0.65)"/><path class="cls-3" d="M114.85,279.71c5.94,2.3,5.12,11.12,5.12,16.68v45.55c0,5.43.7,14.39-5.12,16.56v0.36H137v-0.36c-5.82-2.3-5.13-11.13-5.13-16.56V296.4c0-5.44-.69-14.38,5.13-16.68v-0.36H114.85v0.36Z" transform="translate(-1 -0.65)"/><path class="cls-3" d="M157.37,297.12c0-8.34,8.4-11,15-11a26.05,26.05,0,0,1,18.3,7.61V280.08a56.69,56.69,0,0,0-17.37-2.66c-14.21,0-29.25,5.81-29.25,21,0,25.62,40.08,22.24,40.08,41.09,0,8.46-10,12.56-16.65,12.56a39.52,39.52,0,0,1-25.52-10l3.38,15.1a58.31,58.31,0,0,0,20.85,3.63c18.19,0,31.23-12.09,31.23-25C197.47,313.43,157.37,313.67,157.37,297.12Z" transform="translate(-1 -0.65)"/><path class="cls-3" d="M244.7,350.78c-17.95,0-29.6-15.84-29.6-33.6,0-17.53,11.19-29.73,27.27-29.73a39.46,39.46,0,0,1,21.56,6.89v-13.9a90,90,0,0,0-21.21-3c-23.89,0-40.91,16.56-40.91,41.58,0,25.87,17,41.81,44.52,41.81a39.94,39.94,0,0,0,17.59-3.63l5.94-14h-0.36C262.17,347.51,253.44,350.78,244.7,350.78Z" transform="translate(-1 -0.65)"/><path class="cls-3" d="M311.89,277.31c-24.46-.61-43.7,18.6-43.7,41.56,0,24.78,19.46,41.94,42.54,41.94s42.87-17.89,42.87-42.55A40.9,40.9,0,0,0,311.89,277.31Zm-0.58,74.79c-18.29,0-29.84-17.4-29.84-34.32,0-18.25,11.54-31.78,29.61-31.78,18.4,0,29.24,17,29.24,34.69C340.32,338.69,329,352.1,311.32,352.1Z" transform="translate(-1 -0.65)"/><path class="cls-3" d="M413.47,279.71c6.18,3.63,6.06,8.47,6.06,15.23v45.81l-42.65-55.83-1.64-2.42a7.44,7.44,0,0,1-1.75-3v-0.11h-17v0.36c6.05,3.63,6.05,8.47,6.05,15.23v48.22c0,6.76,0,11.59-6.17,15.34v0.36H377v-0.36c-6.18-3.75-6.06-8.58-6.06-15.34V296.4l40,52.56c5.12,6.89,8.74,10.89,17,13.79v-67.8c0-6.76,0-11.6,6.06-15.23v-0.36H413.47v0.36Z" transform="translate(-1 -0.65)"/><path class="cls-3" d="M451,297.12c0-8.34,8.39-11,15-11a26,26,0,0,1,18.29,7.61V280.08A56.58,56.58,0,0,0,467,277.42c-14.2,0-29.24,5.81-29.24,21,0,25.62,40.08,22.24,40.08,41.09,0,8.46-10,12.56-16.67,12.56a39.54,39.54,0,0,1-25.52-10l3.38,15.1a58.38,58.38,0,0,0,20.87,3.63c18.17,0,31.22-12.09,31.22-25C491.11,313.43,451,313.67,451,297.12Z" transform="translate(-1 -0.65)"/><path class="cls-3" d="M495.51,279.71c5.94,2.3,5.13,11.12,5.13,16.68v45.55c0,5.43.71,14.39-5.13,16.56v0.36h22.13v-0.36c-5.83-2.3-5.12-11.13-5.12-16.56V296.4c0-5.44-.71-14.38,5.12-16.68v-0.36H495.51v0.36Z" transform="translate(-1 -0.65)"/><path class="cls-3" d="M580.49,279.36v0.36c6.19,3.63,6.07,8.47,6.07,15.23v45.81L543.9,284.92l-1.64-2.42a7.8,7.8,0,0,1-1.75-3v-0.11h-17v0.36c6.06,3.63,6.06,8.47,6.06,15.23v48.22c0,6.76,0,11.59-6.17,15.34v0.36H544v-0.36c-6.18-3.75-6.06-8.58-6.06-15.34V296.4l40,52.56c5.12,6.89,8.75,10.89,17,13.79v-67.8c0-6.76,0-11.6,6.06-15.23v-0.36H580.49Z" transform="translate(-1 -0.65)"/><path class="cls-2" d="M36.17,375.64V389.5a8.25,8.25,0,0,1-1,4.15,6.8,6.8,0,0,1-2.94,2.74,10.2,10.2,0,0,1-4.61,1,8.62,8.62,0,0,1-6.2-2.11,7.64,7.64,0,0,1-2.21-5.8v-13.8h3.52v13.55a5.42,5.42,0,0,0,1.23,3.91,5.07,5.07,0,0,0,3.78,1.26q4.95,0,5-5.2V375.64h3.5Z" transform="translate(-1 -0.65)"/><path class="cls-2" d="M60.21,397.06H55.92L45.39,380H45.27l0.08,1q0.2,2.72.21,5v11.13H42.37V375.64h4.25l10.51,17h0.09c0-.23-0.06-1-0.12-2.45s-0.09-2.51-.09-3.3V375.64h3.21v21.42Z" transform="translate(-1 -0.65)"/><path class="cls-2" d="M66.89,397.06V375.64h3.5v21.42h-3.5Z" transform="translate(-1 -0.65)"/><path class="cls-2" d="M89.26,375.64h3.63l-7.5,21.42H81.7l-7.47-21.42h3.6L82.31,389c0.23,0.64.48,1.45,0.74,2.45s0.43,1.75.52,2.24c0.12-.74.32-1.6,0.59-2.58s0.47-1.7.64-2.17Z" transform="translate(-1 -0.65)"/><path class="cls-2" d="M108.86,397.06H96.74V375.64h12.11v3h-8.61v5.83h8.07v2.93h-8.07v6.72h8.61v3Z" transform="translate(-1 -0.65)"/><path class="cls-2" d="M118,388.5v8.55h-3.5V375.64h6q4.14,0,6.14,1.55a5.58,5.58,0,0,1,2,4.69q0,4-4.16,5.7l6,9.48h-4l-5.13-8.55H118Zm0-2.9h2.43a5.55,5.55,0,0,0,3.54-.91,3.3,3.3,0,0,0,1.1-2.7,2.9,2.9,0,0,0-1.19-2.61,6.51,6.51,0,0,0-3.57-.79H118v7Z" transform="translate(-1 -0.65)"/><path class="cls-2" d="M147.05,391.24a5.39,5.39,0,0,1-2.07,4.48,9,9,0,0,1-5.7,1.63,13.58,13.58,0,0,1-5.95-1.13v-3.31a16,16,0,0,0,3.11,1.08,13.17,13.17,0,0,0,3.07.4,4.87,4.87,0,0,0,3.07-.79,2.57,2.57,0,0,0,1-2.12,2.67,2.67,0,0,0-.91-2,13.72,13.72,0,0,0-3.75-2,9.92,9.92,0,0,1-4.13-2.71,5.72,5.72,0,0,1-1.2-3.66,5.12,5.12,0,0,1,1.9-4.22,7.9,7.9,0,0,1,5.11-1.54,15,15,0,0,1,6.12,1.35l-1.11,2.86a13.4,13.4,0,0,0-5.1-1.2,3.92,3.92,0,0,0-2.58.74,2.43,2.43,0,0,0-.88,2,2.77,2.77,0,0,0,.35,1.43,3.6,3.6,0,0,0,1.16,1.12,19.57,19.57,0,0,0,2.9,1.39,15.92,15.92,0,0,1,3.46,1.83,5.4,5.4,0,0,1,1.61,1.92A5.8,5.8,0,0,1,147.05,391.24Z" transform="translate(-1 -0.65)"/><path class="cls-2" d="M152.22,397.06V375.64h3.5v21.42h-3.5Z" transform="translate(-1 -0.65)"/><path class="cls-2" d="M169.79,397.06h-3.5V378.64H160v-3h16.1v3h-6.3v18.41Z" transform="translate(-1 -0.65)"/><path class="cls-2" d="M186.44,385.41l5.07-9.77h3.81l-7.14,13.11v8.31h-3.52v-8.19l-7.1-13.23h3.81Z" transform="translate(-1 -0.65)"/><path class="cls-2" d="M227,386.32q0,5.23-2.62,8.13a9.45,9.45,0,0,1-7.4,2.9q-4.85,0-7.45-2.88t-2.6-8.18q0-5.3,2.62-8.14T217,375.3a9.43,9.43,0,0,1,7.38,2.89Q227,381.08,227,386.32Zm-16.35,0a9.58,9.58,0,0,0,1.6,6,6.49,6.49,0,0,0,9.44,0q1.59-2,1.59-6a9.64,9.64,0,0,0-1.57-6,5.58,5.58,0,0,0-4.7-2,5.69,5.69,0,0,0-4.75,2A9.53,9.53,0,0,0,210.64,386.32Z" transform="translate(-1 -0.65)"/><path class="cls-2" d="M236.08,397.06h-3.47V375.64h12.08v3h-8.61v6.69h8.07v3h-8.07v8.79Z" transform="translate(-1 -0.65)"/><path class="cls-2" d="M278.17,397.06h-3.81l-3.63-12.77c-0.16-.56-0.35-1.36-0.59-2.41s-0.37-1.78-.43-2.19q-0.14.94-.47,2.43c-0.22,1-.4,1.74-0.55,2.23l-3.54,12.71h-3.81l-2.77-10.72-2.81-10.69h3.57l3.06,12.48q0.72,3,1,5.3c0.11-.83.27-1.76,0.48-2.78s0.41-1.85.59-2.49L268,375.64h3.47L275,388.21a46.14,46.14,0,0,1,1.08,5.21,38.23,38.23,0,0,1,1.05-5.33l3-12.45h3.54Z" transform="translate(-1 -0.65)"/><path class="cls-2" d="M287.8,397.06V375.64h3.5v21.42h-3.5Z" transform="translate(-1 -0.65)"/><path class="cls-2" d="M310.32,391.24a5.39,5.39,0,0,1-2.06,4.48,9,9,0,0,1-5.7,1.63,13.6,13.6,0,0,1-5.95-1.13v-3.31a16.2,16.2,0,0,0,3.11,1.08,13.26,13.26,0,0,0,3.07.4,4.89,4.89,0,0,0,3.07-.79,2.59,2.59,0,0,0,1-2.12,2.67,2.67,0,0,0-.91-2,13.77,13.77,0,0,0-3.75-2,9.86,9.86,0,0,1-4.13-2.71,5.72,5.72,0,0,1-1.2-3.66,5.12,5.12,0,0,1,1.9-4.22,7.88,7.88,0,0,1,5.11-1.54,15,15,0,0,1,6.12,1.35l-1.11,2.86a13.4,13.4,0,0,0-5.1-1.2,3.92,3.92,0,0,0-2.58.74,2.43,2.43,0,0,0-.88,2,2.77,2.77,0,0,0,.35,1.43,3.61,3.61,0,0,0,1.16,1.12,19.28,19.28,0,0,0,2.9,1.39,15.92,15.92,0,0,1,3.46,1.83,5.43,5.43,0,0,1,1.61,1.92A5.8,5.8,0,0,1,310.32,391.24Z" transform="translate(-1 -0.65)"/><path class="cls-2" d="M324.6,378.34a5.76,5.76,0,0,0-4.75,2.14,9.13,9.13,0,0,0-1.73,5.9q0,3.94,1.66,6a5.88,5.88,0,0,0,4.82,2,12.78,12.78,0,0,0,2.64-.27c0.85-.18,1.73-0.41,2.65-0.7v3a16,16,0,0,1-5.71,1q-4.7,0-7.22-2.85t-2.52-8.15a13.19,13.19,0,0,1,1.22-5.84,8.77,8.77,0,0,1,3.54-3.84,10.73,10.73,0,0,1,5.44-1.33,13.51,13.51,0,0,1,6.06,1.38l-1.26,2.92a19.1,19.1,0,0,0-2.3-.9A8.26,8.26,0,0,0,324.6,378.34Z" transform="translate(-1 -0.65)"/><path class="cls-2" d="M354.54,386.32q0,5.23-2.62,8.13a9.44,9.44,0,0,1-7.4,2.9q-4.85,0-7.45-2.88t-2.6-8.18q0-5.3,2.61-8.14t7.46-2.84a9.44,9.44,0,0,1,7.38,2.89Q354.53,381.08,354.54,386.32Zm-16.35,0a9.62,9.62,0,0,0,1.59,6,6.49,6.49,0,0,0,9.44,0q1.59-2,1.59-6a9.64,9.64,0,0,0-1.58-6,5.57,5.57,0,0,0-4.69-2,5.69,5.69,0,0,0-4.76,2A9.53,9.53,0,0,0,338.19,386.32Z" transform="translate(-1 -0.65)"/><path class="cls-2" d="M378,397.06h-4.29L363.18,380h-0.12l0.08,1q0.2,2.72.21,5v11.13h-3.18V375.64h4.25l10.51,17H375c0-.23-0.06-1-0.12-2.45s-0.09-2.51-.09-3.3V375.64H378v21.42Z" transform="translate(-1 -0.65)"/><path class="cls-2" d="M397,391.24a5.39,5.39,0,0,1-2.07,4.48,9,9,0,0,1-5.7,1.63,13.56,13.56,0,0,1-5.95-1.13v-3.31a15.93,15.93,0,0,0,3.11,1.08,13.18,13.18,0,0,0,3.07.4,4.87,4.87,0,0,0,3.06-.79,2.57,2.57,0,0,0,1-2.12,2.65,2.65,0,0,0-.91-2,13.58,13.58,0,0,0-3.75-2,9.94,9.94,0,0,1-4.13-2.71,5.76,5.76,0,0,1-1.2-3.66,5.14,5.14,0,0,1,1.9-4.22,7.91,7.91,0,0,1,5.12-1.54,15,15,0,0,1,6.12,1.35l-1.11,2.86a13.4,13.4,0,0,0-5.1-1.2,3.91,3.91,0,0,0-2.58.74,2.43,2.43,0,0,0-.88,2,2.77,2.77,0,0,0,.35,1.43,3.65,3.65,0,0,0,1.15,1.12,19.88,19.88,0,0,0,2.9,1.39,15.78,15.78,0,0,1,3.46,1.83,5.37,5.37,0,0,1,1.61,1.92A5.71,5.71,0,0,1,397,391.24Z" transform="translate(-1 -0.65)"/><path class="cls-2" d="M402.19,397.06V375.64h3.5v21.42h-3.5Z" transform="translate(-1 -0.65)"/><path class="cls-2" d="M430.21,397.06h-4.29L415.38,380h-0.12l0.07,1c0.14,1.82.21,3.48,0.21,5v11.13h-3.18V375.64h4.25l10.5,17h0.09c0-.23-0.06-1-0.12-2.45s-0.09-2.51-.09-3.3V375.64h3.21v21.42Z" transform="translate(-1 -0.65)"/><path class="cls-2" d="M435.25,390.39v-2.78h12.6v2.78h-12.6Z" transform="translate(-1 -0.65)"/><path class="cls-2" d="M462.16,397.06l-6.21-17.89h-0.12q0.25,4,.25,7.47v10.42H452.9V375.64h4.93l5.95,17h0.09l6.12-17h5v21.42h-3.37V386.47q0-1.6.08-4.16c0.05-1.71.1-2.75,0.14-3.11h-0.12l-6.43,17.86h-3.09Z" transform="translate(-1 -0.65)"/><path class="cls-2" d="M494.89,397.06l-2.14-5.95h-8.19l-2.1,5.95h-3.69l8-21.5h3.81l8,21.5h-3.72Zm-3.06-9-2-5.83c-0.15-.39-0.35-1-0.61-1.85s-0.43-1.46-.53-1.85a33.57,33.57,0,0,1-1.15,3.94l-1.93,5.58h6.24Z" transform="translate(-1 -0.65)"/><path class="cls-2" d="M519.88,386.14q0,5.3-2.95,8.11t-8.48,2.81h-6V375.64h6.62q5.12,0,8,2.75T519.88,386.14Zm-3.69.12q0-7.69-7.2-7.69h-3v15.54h2.49Q516.19,394.11,516.19,386.26Z" transform="translate(-1 -0.65)"/><path class="cls-2" d="M525.5,397.06V375.64H529v21.42h-3.5Z" transform="translate(-1 -0.65)"/><path class="cls-2" d="M548,391.24a5.39,5.39,0,0,1-2.07,4.48,9,9,0,0,1-5.7,1.63,13.56,13.56,0,0,1-5.95-1.13v-3.31a15.93,15.93,0,0,0,3.11,1.08,13.18,13.18,0,0,0,3.07.4,4.87,4.87,0,0,0,3.06-.79,2.57,2.57,0,0,0,1-2.12,2.65,2.65,0,0,0-.91-2,13.58,13.58,0,0,0-3.75-2,9.94,9.94,0,0,1-4.13-2.71,5.76,5.76,0,0,1-1.2-3.66,5.14,5.14,0,0,1,1.9-4.22,7.91,7.91,0,0,1,5.12-1.54,15,15,0,0,1,6.12,1.35l-1.11,2.86a13.4,13.4,0,0,0-5.1-1.2,3.91,3.91,0,0,0-2.58.74,2.43,2.43,0,0,0-.88,2,2.77,2.77,0,0,0,.35,1.43,3.65,3.65,0,0,0,1.15,1.12,19.88,19.88,0,0,0,2.9,1.39,15.78,15.78,0,0,1,3.46,1.83,5.37,5.37,0,0,1,1.61,1.92A5.71,5.71,0,0,1,548,391.24Z" transform="translate(-1 -0.65)"/><path class="cls-2" d="M572.2,386.32q0,5.23-2.61,8.13a9.46,9.46,0,0,1-7.41,2.9q-4.84,0-7.45-2.88t-2.6-8.18q0-5.3,2.61-8.14t7.46-2.84a9.43,9.43,0,0,1,7.38,2.89Q572.2,381.08,572.2,386.32Zm-16.35,0a9.58,9.58,0,0,0,1.6,6,6.49,6.49,0,0,0,9.44,0q1.59-2,1.59-6a9.6,9.6,0,0,0-1.58-6,5.57,5.57,0,0,0-4.69-2,5.68,5.68,0,0,0-4.75,2A9.49,9.49,0,0,0,555.85,386.32Z" transform="translate(-1 -0.65)"/><path class="cls-2" d="M595.66,397.06h-4.29L580.83,380h-0.12l0.08,1q0.2,2.72.21,5v11.13h-3.18V375.64h4.25l10.51,17h0.09c0-.23-0.06-1-0.12-2.45s-0.09-2.51-.09-3.3V375.64h3.21v21.42Z" transform="translate(-1 -0.65)"/></svg>